<svg width="32" height="32" viewBox="0 0 32 32" fill="none" xmlns="http://www.w3.org/2000/svg">
<circle cx="16" cy="16" r="16" fill="#FEA5BB"/>
<path d="M16 6.58838C10.8306 6.58838 6.58826 10.8307 6.58826 16.0001C6.58826 20.4115 9.68367 24.4187 13.7941 25.4119V22.2981C13.3869 22.3873 13.012 22.3899 12.5974 22.2677C12.0412 22.1035 11.5893 21.733 11.2538 21.168C11.0399 20.8073 10.661 20.4161 10.2656 20.4448L10.1687 19.3462C11.0236 19.2729 11.7632 19.867 12.2022 20.6046C12.3972 20.9326 12.6217 21.1249 12.9098 21.21C13.1882 21.292 13.4872 21.2526 13.8356 21.1295C13.9231 20.432 14.2426 20.1709 14.4841 19.8033V19.8027C12.0326 19.4371 11.0556 18.1365 10.6678 17.11C10.154 15.747 10.4297 14.0441 11.3384 12.9681C11.356 12.9471 11.3879 12.8922 11.3756 12.8539C10.9589 11.5954 11.4666 10.5544 11.4853 10.4439C11.9661 10.5861 12.0442 10.3009 13.5738 11.2302L13.8382 11.389C13.9488 11.455 13.9141 11.4173 14.0246 11.409C14.6633 11.2355 15.3365 11.1397 15.9999 11.1311C16.6682 11.1397 17.3372 11.2355 18.0023 11.416L18.0879 11.4247C18.0804 11.4235 18.1111 11.4192 18.1627 11.3885C20.0734 10.2311 20.0048 10.6094 20.5172 10.4428C20.5357 10.5534 21.0366 11.6114 20.6245 12.8539C20.5689 13.0251 22.281 14.5929 21.3321 17.1095C20.9443 18.1365 19.9674 19.4371 17.516 19.8027V19.8033C17.8302 20.2822 18.2078 20.537 18.2058 21.525V25.4119C22.3164 24.4187 25.4116 20.4115 25.4116 16.0001C25.4118 10.8307 21.1695 6.58838 16 6.58838V6.58838Z" fill="white"/>
</svg>
